<?xml version="1.0" standalone="no"?>
<!DOCTYPE svg PUBLIC "-//W3C//DTD SVG 20010904//EN"
 "http://www.w3.org/TR/2001/REC-SVG-20010904/DTD/svg10.dtd">
<svg version="1.0" xmlns="http://www.w3.org/2000/svg"
 width="500.000000pt" height="500.000000pt" viewBox="0 0 500.000000 500.000000"
 preserveAspectRatio="xMidYMid meet">

<g transform="translate(0.000000,500.000000) scale(0.100000,-0.100000)"
fill="#000000" stroke="none">
<path d="M2888 3084 c-5 -4 -8 -17 -8 -28 0 -12 -9 -35 -19 -52 -15 -24 -31
-35 -71 -45 l-51 -13 48 -14 c57 -16 81 -41 89 -93 7 -41 24 -54 24 -19 0 46
27 87 69 103 23 10 51 17 64 18 13 1 7 4 -16 10 -81 19 -105 44 -119 122 -2
11 -6 15 -10 11z"/>
<path d="M1876 2670 c-49 -15 -76 -48 -76 -94 1 -54 16 -72 129 -153 52 -38
103 -80 114 -95 19 -25 19 -28 4 -52 -46 -70 -145 -26 -187 84 -7 19 -15 36
-16 38 -6 9 -64 -31 -64 -45 0 -26 82 -100 125 -112 118 -33 208 12 208 103 0
61 -23 88 -144 171 -106 71 -126 98 -99 131 16 18 80 18 106 0 11 -8 29 -34
39 -58 10 -24 20 -44 21 -46 1 -2 19 5 39 15 l36 19 -44 41 c-61 56 -123 73
-191 53z"/>
<path d="M925 2455 l0 -215 58 0 57 0 0 215 0 215 -57 0 -58 0 0 -215z"/>
<path d="M1240 2455 c0 -118 3 -215 8 -215 4 0 6 91 4 202 l-3 203 31 -55 c17
-30 65 -121 107 -202 l76 -148 66 0 66 0 -2 207 c-1 115 -5 208 -9 208 -3 0
-6 -88 -5 -195 l1 -195 -30 55 c-17 30 -65 121 -107 203 l-76 147 -64 0 -63 0
0 -215z"/>
<path d="M2300 2669 c0 -2 -1 -100 -3 -217 l-2 -212 58 0 57 0 0 100 0 100 63
0 c70 0 139 26 156 58 16 30 13 84 -5 111 -27 38 -79 53 -206 59 -65 2 -118 3
-118 1z m209 -45 c15 -19 21 -41 21 -76 0 -62 -31 -98 -85 -98 l-35 0 0 100 0
100 39 0 c31 0 44 -6 60 -26z"/>
<path d="M2830 2455 l0 -215 58 0 57 0 -2 212 -2 213 -55 3 -56 3 0 -216z"/>
<path d="M3145 2456 l0 -216 58 0 57 0 0 100 c0 106 5 115 46 85 12 -8 27 -29
34 -47 43 -109 64 -126 167 -134 l68 -6 -35 19 c-22 11 -45 36 -60 65 -33 60
-58 88 -94 103 l-29 13 24 6 c80 23 109 53 109 113 0 75 -59 103 -225 111
l-120 5 0 -217z m205 176 c26 -21 37 -90 21 -131 -13 -31 -47 -51 -86 -51 -25
0 -25 1 -25 100 l0 100 34 0 c19 0 44 -8 56 -18z"/>
<path d="M3840 2654 c0 -16 -92 -363 -105 -396 -4 -10 -3 -18 3 -18 6 0 18 34
28 75 l18 75 71 0 72 0 18 -75 19 -75 62 0 63 0 -18 53 c-10 28 -37 125 -61
215 l-43 162 -64 0 c-51 0 -63 -3 -63 -16z m49 -131 c17 -62 31 -115 31 -118
0 -3 -30 -5 -66 -5 -57 0 -65 2 -60 18 2 9 17 63 32 120 15 56 28 101 29 100
2 -2 17 -54 34 -115z"/>
</g>
</svg>
