<svg width="1439" height="1038" viewBox="0 0 1439 1038" fill="none" xmlns="http://www.w3.org/2000/svg">
<path d="M1449 431.737C1449 433.076 1448.15 434.242 1446.86 434.612C1399.3 448.299 1299.68 479.61 1213 454C1125 427.999 1045 362 959 182C890.2 37.9998 783.667 0.666473 739 -0.000183105H1446C1447.66 -0.000183105 1449 1.34296 1449 2.99982V431.737Z" fill="url(#paint0_linear_519_158)"/>
<path d="M0 608.028C0 606.688 0.848262 605.523 2.13547 605.153C49.702 591.465 149.319 560.154 236 585.765C324 611.765 404 677.765 490 857.765C558.8 1001.76 665.333 1039.1 710 1039.76H3.00002C1.34316 1039.76 0 1038.42 0 1036.76V608.028Z" fill="url(#paint1_linear_519_158)"/>
<defs>
<linearGradient id="paint0_linear_519_158" x1="1094" y1="463.765" x2="1094" y2="-0.000183105" gradientUnits="userSpaceOnUse">
<stop stop-color="#FFA3A3"/>
<stop offset="1" stop-color="#96AAC9"/>
</linearGradient>
<linearGradient id="paint1_linear_519_158" x1="355" y1="576" x2="355" y2="1039.76" gradientUnits="userSpaceOnUse">
<stop stop-color="#FFA3A3"/>
<stop offset="1" stop-color="#96AAC9"/>
</linearGradient>
</defs>
</svg>
