<svg width="1439" height="950" viewBox="0 0 1439 950" fill="none" xmlns="http://www.w3.org/2000/svg">
<path d="M1446 518.028C1446 516.688 1445.15 515.523 1443.86 515.153C1396.3 501.465 1296.68 470.154 1210 495.765C1122 521.765 1042 587.765 956 767.765C887.2 911.765 780.667 949.098 736 949.765H1443C1444.66 949.765 1446 948.422 1446 946.765V518.028Z" fill="url(#paint0_linear_519_157)"/>
<path d="M0 431.737C0 433.076 0.848262 434.242 2.13547 434.612C49.702 448.299 149.319 479.61 236 454C324 427.999 404 362 490 182C558.8 37.9998 665.333 0.666473 710 -0.000183105H3.00002C1.34316 -0.000183105 0 1.34296 0 2.99982V431.737Z" fill="url(#paint1_linear_519_157)"/>
<defs>
<linearGradient id="paint0_linear_519_157" x1="1091" y1="486" x2="1091" y2="949.765" gradientUnits="userSpaceOnUse">
<stop stop-color="#FFA3A3"/>
<stop offset="1" stop-color="#96AAC9"/>
</linearGradient>
<linearGradient id="paint1_linear_519_157" x1="355" y1="463.765" x2="355" y2="-0.000183105" gradientUnits="userSpaceOnUse">
<stop stop-color="#FFA3A3"/>
<stop offset="1" stop-color="#96AAC9"/>
</linearGradient>
</defs>
</svg>
